{
	"asset":{
		"generator":"Khronos glTF Blender I/O v3.6.27",
		"version":"2.0"
	},
	"extensionsUsed":[
		"KHR_materials_specular",
		"KHR_materials_ior"
	],
	"scene":0,
	"scenes":[
		{
			"name":"Scene",
			"nodes":[
				0
			]
		}
	],
	"nodes":[
		{
			"mesh":0,
			"name":"MolView.mol",
			"rotation":[
				0.7071068286895752,
				0,
				0,
				0.7071068286895752
			]
		}
	],
	"materials":[
		{
			"doubleSided":true,
			"extensions":{
				"KHR_materials_specular":{
					"specularColorFactor":[
						0.020080160244135427,
						0.020080160244135427,
						0.020080160244135427
					]
				},
				"KHR_materials_ior":{
					"ior":0.0010000000474974513
				}
			},
			"name":"kff0d0d",
			"pbrMetallicRoughness":{
				"baseColorFactor":[
					1,
					0.054999999701976776,
					0.054999999701976776,
					1
				],
				"metallicFactor":0,
				"roughnessFactor":0.5962674021720886
			}
		},
		{
			"doubleSided":true,
			"extensions":{
				"KHR_materials_specular":{
					"specularColorFactor":[
						0.020080160244135427,
						0.020080160244135427,
						0.020080160244135427
					]
				},
				"KHR_materials_ior":{
					"ior":0.0010000000474974513
				}
			},
			"name":"k3050f8",
			"pbrMetallicRoughness":{
				"baseColorFactor":[
					0.19099999964237213,
					0.3160000145435333,
					0.9729999899864197,
					1
				],
				"metallicFactor":0,
				"roughnessFactor":0.5962674021720886
			}
		},
		{
			"doubleSided":true,
			"extensions":{
				"KHR_materials_specular":{
					"specularColorFactor":[
						0.020080160244135427,
						0.020080160244135427,
						0.020080160244135427
					]
				},
				"KHR_materials_ior":{
					"ior":0.0010000000474974513
				}
			},
			"name":"k000000",
			"pbrMetallicRoughness":{
				"baseColorFactor":[
					0,
					0,
					0,
					1
				],
				"metallicFactor":0,
				"roughnessFactor":0.5962674021720886
			}
		},
		{
			"doubleSided":true,
			"extensions":{
				"KHR_materials_specular":{
					"specularColorFactor":[
						0.020080160244135427,
						0.020080160244135427,
						0.020080160244135427
					]
				},
				"KHR_materials_ior":{
					"ior":0.0010000000474974513
				}
			},
			"name":"kffffff",
			"pbrMetallicRoughness":{
				"metallicFactor":0,
				"roughnessFactor":0.5962674021720886
			}
		},
		{
			"doubleSided":true,
			"extensions":{
				"KHR_materials_specular":{
					"specularColorFactor":[
						0.020080160244135427,
						0.020080160244135427,
						0.020080160244135427
					]
				},
				"KHR_materials_ior":{
					"ior":0.0010000000474974513
				}
			},
			"name":"k808080",
			"pbrMetallicRoughness":{
				"baseColorFactor":[
					0.5040000081062317,
					0.5040000081062317,
					0.5040000081062317,
					1
				],
				"metallicFactor":0,
				"roughnessFactor":0.5962674021720886
			}
		}
	],
	"meshes":[
		{
			"name":"MolView.mol",
			"primitives":[
				{
					"attributes":{
						"POSITION":0,
						"NORMAL":1
					},
					"indices":2,
					"material":0
				},
				{
					"attributes":{
						"POSITION":3,
						"NORMAL":4
					},
					"indices":5,
					"material":1
				},
				{
					"attributes":{
						"POSITION":6,
						"NORMAL":7
					},
					"indices":8,
					"material":2
				},
				{
					"attributes":{
						"POSITION":9,
						"NORMAL":10
					},
					"indices":11,
					"material":3
				},
				{
					"attributes":{
						"POSITION":12,
						"NORMAL":13
					},
					"indices":14,
					"material":4
				}
			]
		}
	],
	"accessors":[
		{
			"bufferView":0,
			"componentType":5126,
			"count":1284,
			"max":[
				0.8500000238418579,
				0.3806000053882599,
				0.8235999941825867
			],
			"min":[
				-3.5071001052856445,
				-0.38029998540878296,
				-2.9488000869750977
			],
			"type":"VEC3"
		},
		{
			"bufferView":1,
			"componentType":5126,
			"count":1284,
			"type":"VEC3"
		},
		{
			"bufferView":2,
			"componentType":5123,
			"count":7680,
			"type":"SCALAR"
		},
		{
			"bufferView":3,
			"componentType":5126,
			"count":2568,
			"max":[
				2.6057000160217285,
				0.38769999146461487,
				2.324699878692627
			],
			"min":[
				-1.7351999282836914,
				-0.3877999782562256,
				-1.4672000408172607
			],
			"type":"VEC3"
		},
		{
			"bufferView":4,
			"componentType":5126,
			"count":2568,
			"type":"VEC3"
		},
		{
			"bufferView":5,
			"componentType":5123,
			"count":15360,
			"type":"SCALAR"
		},
		{
			"bufferView":6,
			"componentType":5126,
			"count":5136,
			"max":[
				3.6175999641418457,
				0.42580002546310425,
				3.121000051498413
			],
			"min":[
				-2.72189998626709,
				-0.42580002546310425,
				-2.613100051879883
			],
			"type":"VEC3"
		},
		{
			"bufferView":7,
			"componentType":5126,
			"count":5136,
			"type":"VEC3"
		},
		{
			"bufferView":8,
			"componentType":5123,
			"count":30720,
			"type":"SCALAR"
		},
		{
			"bufferView":9,
			"componentType":5126,
			"count":6420,
			"max":[
				4.474200248718262,
				1.1754000186920166,
				3.4723000526428223
			],
			"min":[
				-3.2095999717712402,
				-1.1741999387741089,
				-3.4401001930236816
			],
			"type":"VEC3"
		},
		{
			"bufferView":10,
			"componentType":5126,
			"count":6420,
			"type":"VEC3"
		},
		{
			"bufferView":11,
			"componentType":5123,
			"count":38400,
			"type":"SCALAR"
		},
		{
			"bufferView":12,
			"componentType":5126,
			"count":39324,
			"max":[
				4.30019998550415,
				1.0013999938964844,
				3.29830002784729
			],
			"min":[
				-3.2682557106018066,
				-1.0001999139785767,
				-3.2661001682281494
			],
			"type":"VEC3"
		},
		{
			"bufferView":13,
			"componentType":5126,
			"count":39324,
			"type":"VEC3"
		},
		{
			"bufferView":14,
			"componentType":5123,
			"count":228984,
			"type":"SCALAR"
		}
	],
	"bufferViews":[
		{
			"buffer":0,
			"byteLength":15408,
			"byteOffset":0,
			"target":34962
		},
		{
			"buffer":0,
			"byteLength":15408,
			"byteOffset":15408,
			"target":34962
		},
		{
			"buffer":0,
			"byteLength":15360,
			"byteOffset":30816,
			"target":34963
		},
		{
			"buffer":0,
			"byteLength":30816,
			"byteOffset":46176,
			"target":34962
		},
		{
			"buffer":0,
			"byteLength":30816,
			"byteOffset":76992,
			"target":34962
		},
		{
			"buffer":0,
			"byteLength":30720,
			"byteOffset":107808,
			"target":34963
		},
		{
			"buffer":0,
			"byteLength":61632,
			"byteOffset":138528,
			"target":34962
		},
		{
			"buffer":0,
			"byteLength":61632,
			"byteOffset":200160,
			"target":34962
		},
		{
			"buffer":0,
			"byteLength":61440,
			"byteOffset":261792,
			"target":34963
		},
		{
			"buffer":0,
			"byteLength":77040,
			"byteOffset":323232,
			"target":34962
		},
		{
			"buffer":0,
			"byteLength":77040,
			"byteOffset":400272,
			"target":34962
		},
		{
			"buffer":0,
			"byteLength":76800,
			"byteOffset":477312,
			"target":34963
		},
		{
			"buffer":0,
			"byteLength":471888,
			"byteOffset":554112,
			"target":34962
		},
		{
			"buffer":0,
			"byteLength":471888,
			"byteOffset":1026000,
			"target":34962
		},
		{
			"buffer":0,
			"byteLength":457968,
			"byteOffset":1497888,
			"target":34963
		}
	],
	"buffers":[
		{
			"byteLength":1955856,
			"uri":"data:application/octet-stream;base64,"
		}
	]
}
